<svg xmlns="http://www.w3.org/2000/svg" viewBox="0 0 595.276 841.89"><g fill="#ffb133"><path d="M230.473 467.074l37.985 28.719 32.762-26.326 34.186 26.326 25.165-25.847L406.241 498c2.819-7.401 5.462-16.718 6.559-27.639 2.977-29.636-7.235-53.084-13.07-64.191l-32.987 40.737-40.834-29.198-28.014 26.805-37.035-28.719-29.438 22.976-27.454-32.708c-4.998 8.556-13.82 26.326-14.72 50.439-.724 19.404 3.988 34.724 7.44 43.5l33.785-32.928z"/><path d="M233.322 423.452l28.963-22.976 34.661 28.241 27.064-25.847 40.359 28.241 30.524-35.408c-6.544-12.818-15.473-25.58-27.675-36.869-9.286-8.591-24.659-22.445-48.605-26.469-22.796-3.831-41.022 3.32-49.681 6.844-27.073 11.019-41.936 30.506-49.855 41.164a139.145 139.145 0 0 0-8.778 13.355l23.023 29.724zM361.521 483.349l-24.453 27.523-37.273-27.044-31.812 25.369-36.56-28.241-30.95 28.772c.377.981.915 2.767.77 5.029a11.914 11.914 0 0 1-1.082 4.244c1.563-.157 4.974-.279 8.68 1.5 5.163 2.479 7.352 6.944 7.936 8.25 2.406-3.083 6.496-7.377 12.718-10.36 15.815-7.582 31.669-.11 34.152 1.11 2.221-1.818 7.651-5.704 14.883-5.553 10.35.215 20.143 8.61 23.803 21.053 6.711-11.827 18.443-17.532 27.775-14.75 5.561 1.658 8.995 5.95 10.664 8.5 3.104-1.147 13.998-4.733 25.543.25 4.642 2.004 7.981 4.785 10.168 7 .507-1.259 2.34-5.366 6.944-8 4.228-2.418 8.275-2.155 9.672-2-.321-.779-2.494-6.312.496-12 2.503-4.761 6.926-6.404 7.936-6.75l-40.01-23.902z"/></g><path d="M226.021 358.355a160.494 160.494 0 0 0-21.061-16.753c-15.731-10.485-30.831-16.519-42.6-20.104a104.086 104.086 0 0 1 37.335-5.744 104.071 104.071 0 0 1 34.942 7.18 79.276 79.276 0 0 0-10.53-17.71c-7.35-9.333-15.389-15.203-21.061-18.668a106.395 106.395 0 0 1 22.976 1.436c18.027 3.116 31.68 10.296 40.207 15.796a97.399 97.399 0 0 1-1.915-22.976 97.458 97.458 0 0 1 4.308-25.369 95.73 95.73 0 0 1 20.582 16.753A95.81 95.81 0 0 1 305 295.172a116.838 116.838 0 0 1 31.113-42.122 84.698 84.698 0 0 1 9.094 25.369 84.653 84.653 0 0 1 .957 24.411 92.4 92.4 0 0 1 16.274-14.838c15.355-10.947 30.762-14.774 40.207-16.274a110.89 110.89 0 0 0-10.53 17.71c-5.726 12.059-8.331 23.184-9.573 31.591a65.93 65.93 0 0 1 16.274-8.616c16.85-6.07 31.961-3.637 39.25-1.915a170.073 170.073 0 0 0-25.847 19.625 170.365 170.365 0 0 0-26.805 31.591c-5.508-7.304-15.166-18.159-30.155-26.805-38.491-22.202-77.869-10.07-82.329-8.616-24.941 8.135-40.202 24.045-46.909 32.072z" fill="#608700"/><path d="M176.241 234.862l46.908 44.515c4.364.191 9.77.808 15.796 2.393a75.007 75.007 0 0 1 17.71 7.18 71.326 71.326 0 0 1 0-19.625c1.578-11.332 5.582-20.001 8.616-25.369a148.276 148.276 0 0 1 18.668 12.445A148.397 148.397 0 0 1 305 276.505a121.79 121.79 0 0 1 11.009-15.317 122.419 122.419 0 0 1 22.976-21.061 78.945 78.945 0 0 1 8.616 14.36c5.121 11.053 6.707 21.222 7.18 28.241a76.967 76.967 0 0 1 19.146-11.488 76.914 76.914 0 0 1 19.625-5.265 113.624 113.624 0 0 1 7.18-17.71 114.033 114.033 0 0 1 16.274-23.933 129.126 129.126 0 0 0-21.54 6.701 129.837 129.837 0 0 0-31.113 18.189c.26-9.556-.49-22.613-4.787-37.335a120.61 120.61 0 0 0-8.616-21.54 117.076 117.076 0 0 0-20.582 16.274c-14.37 14.264-22.144 29.434-26.326 39.729a125.1 125.1 0 0 0-15.796-24.411c-11.057-13.37-22.887-21.989-31.591-27.283a170.672 170.672 0 0 0-6.223 27.283 170.797 170.797 0 0 0-1.436 33.985A139.933 139.933 0 0 0 222.191 243c-18.161-6.477-34.418-8.023-45.95-8.138zM368.75 598.75c9.359 6.442 14.347 16.494 12.579 25.685-.967 5.029-3.734 8.645-5.754 10.759a30.265 30.265 0 0 1-1.151 12.795A30.302 30.302 0 0 1 367.249 660a40.236 40.236 0 0 0 7.5 5.25 40.512 40.512 0 0 0 13.32 4.43l18.987-29.224-12.807 31.294a93.475 93.475 0 0 0 29.636 7.962l7.787-20.674-1.924 20.711a108.112 108.112 0 0 0 9.5 3.5 108.934 108.934 0 0 0 24.768 4.75 214.478 214.478 0 0 0 4.232-34.25l-25.377-3.262 25.46-3.053c.434-2.242.76-5.015.667-8.185a37.593 37.593 0 0 0-2.75-13l-29.921-.917 28.983-4.942a31.255 31.255 0 0 0-2.813-13.141 31.1 31.1 0 0 0-6-8.75c-2.213 2.322-6.114 5.838-11.862 8.31-3.033 1.304-17.306 7.441-29.363-.695-11.451-7.727-11.767-22.164-11.776-23.615a31.781 31.781 0 0 1-10.75 4c-3.73.655-6.94.527-9.25.25a37.952 37.952 0 0 1-14.746 12.001zM223.5 600.75c-.757.508-8.498 5.902-8.75 15.75-.224 8.74 5.624 14.208 6.5 15a20.397 20.397 0 0 0-2.25 9.25c-.006 5.45 2.205 9.396 3.226 10.996a51.217 51.217 0 0 1-19.483 8.47l-14.479-22.633 7.913 25.261a67.161 67.161 0 0 1-16.176 5.657 67.032 67.032 0 0 1-12.91 1.44l-7.958-20.106.882 20.645a89.182 89.182 0 0 1-33.937 7.521 72.527 72.527 0 0 1-3.077-12.75 72.592 72.592 0 0 1-.451-17.368l25.137-6.363-26.019-2.969a39.838 39.838 0 0 1-.667-7.049 39.968 39.968 0 0 1 1.549-11.192l31.825-3.254-29.62-4.806a61.988 61.988 0 0 1 3.168-8.046 62.43 62.43 0 0 1 9.578-14.453c1.669 2.269 6.16 7.725 14 10.25 12.522 4.034 23.11-2.782 25.039-4.083 11.067-7.464 12.94-19.472 13.211-21.417a41.149 41.149 0 0 0 11 4.75 40.96 40.96 0 0 0 7.25 1.25 34.535 34.535 0 0 0 4 9c3.783 6.008 8.587 9.481 11.499 11.249zM188.75 493.75c-2.95-6.616-9.371-10.996-16.5-11.25-10.448-.372-16.238 8.341-16.5 8.75-1.211-.436-5.912-1.969-10.75.25-5.309 2.435-8.627 8.399-8.25 15-2.819-1.864-6.747-5.019-9.75-10-3.243-5.379-4.551-11.467-4-24.75.36-8.681 1.523-20.628 5-34.75a92.818 92.818 0 0 1 28.25 9.75c6.371 3.437 13.732 7.409 20.25 15.25 9.496 11.424 11.699 24.44 12.25 31.75zM411.333 495.333c.641-.758 5.727-6.567 14-6.333 9.413.266 14.332 8.112 14.667 8.667 6.687-1.632 13.296.646 16.479 5.505 2.514 3.838 2.076 8.043 1.854 9.495 3.175-1.279 7.788-3.675 11.568-8.23 1.713-2.064 6.474-8.45 6.472-28.053-.001-8.252-.846-20.363-5-34.75a92.818 92.818 0 0 0-28.25 9.75c-6.684 3.606-13.86 7.449-20.25 15.25-8.547 10.435-10.845 22.011-11.54 28.699zM101.5 511.25c-12.052-1.114-21.25 5.962-29.75 12.5-6.317 4.859-15.945 13.608-24.083 27.868 10.011 8.315 19.426 13.208 26.034 16.078 10.699 4.648 20.539 8.923 32.799 6.804 7.955-1.375 13.915-4.92 17.5-7.5-1.082-.211-6.292-1.347-9.5-6.25-1.96-2.995-2.249-5.984-2.29-7.414-8.811-3.994-13.686-13.289-11.96-22.086 1.431-7.292 7.199-13.235 14.75-15.25-2.979-1.884-7.609-4.206-13.5-4.75zM493.167 517.724c12.052-1.114 21.25 5.962 29.75 12.5 6.317 4.859 15.945 13.608 24.083 27.868-10.011 8.315-19.426 13.208-26.034 16.078-10.699 4.648-20.539 8.923-32.799 6.804-7.955-1.375-13.915-4.92-17.5-7.5 1.082-.211 6.292-1.347 9.5-6.25 1.96-2.995 2.249-5.984 2.29-7.414 8.811-3.994 13.686-13.289 11.96-22.086-1.431-7.292-7.199-13.235-14.75-15.25 2.979-1.884 7.608-4.206 13.5-4.75zM305.625 699.333l19.422 14.896c3.306-4.87 6.621-9.939 9.835-16.012l-18.299-17.467 20.892 12.277c.427-.905.853-1.825 1.275-2.777a132.3 132.3 0 0 0 7.75-23 21.82 21.82 0 0 1-7.75-1 21.822 21.822 0 0 1-7-3.75c-2.508.718-7.272 1.702-13 .5-8.768-1.84-13.909-7.569-15.5-9.5-.211.811-3.552 12.792-15.499 16.633-10.141 3.26-18.574-1.887-19.751-2.633a16.791 16.791 0 0 1-4.75 2.75 16.933 16.933 0 0 1-7.5 1 96.218 96.218 0 0 0 9.5 22c.302.512.609 1.005.916 1.502L289 681.334l-19.44 18.556c3.265 4.587 6.669 8.477 10.074 11.965l16.325-12.521-13.071 15.748c2.064 1.983 4.111 3.852 6.112 5.669a166.21 166.21 0 0 0 19.551 15.25 226.34 226.34 0 0 0 13.298-17.12l-16.224-19.548z" fill="#608700"/><g><path d="M355.656 597.193c4.92.252 11.299-.552 16.766-4.913 1.266-1.01 8.217-6.555 8.262-15.831.039-8.176-5.316-13.48-6.411-14.522 1.307-1.76 3.617-5.42 3.823-10.353.408-9.775-7.804-16.001-9-16.908-7.64-5.792-18.876-6.373-28.939-1.792-4.63-7.471-9.964-8.76-11.358-9.033-9.706-1.899-22.715 7.438-27.838 24.583.342-3.498.484-10.803-3.955-17.999-1.179-1.911-8.368-13.566-19.554-12.759-6.226.449-10.506 4.529-12.03 6.138-3.246-1.83-10.654-5.413-20.391-4.918-3.35.17-18.624.947-26.064 13.299-5.205 8.642-4.659 19.765 1.157 28.818-2.055 1.45-6.763 5.208-8.361 11.433-2.547 9.917 4.566 19.221 11.182 23.703 3.703 2.508 7.567 3.717 10.947 4.264-4.706.964-8.944 3.585-11.696 7.486-4.896 6.938-4.122 16.534 2.038 22.932-.987 2.569-2.411 7.334-1.729 13.239.133 1.156 1.608 12.395 11.082 19.305 9.431 6.879 23.432 7.021 34.987.189 5.706 4.139 10.25 4.258 12.261 4.123 10.14-.68 20.031-12.123 22.341-28.967-.194 3.369.244 9.632 5.221 14.656 5.451 5.502 14.117 7.258 21.9 4.395 2.393 1.907 7.798 5.623 15.346 6.009 10.885.558 22.328-6.007 25.998-16.231 2.179-6.069.959-11.591.187-14.182 1.879-1.097 4.943-3.288 6.433-6.99 3.028-7.52-2.872-15.236-4.968-17.977-4.997-6.53-12.061-9.67-17.637-11.197zm-55.071 18.333c-13.294.3-24.305-9.849-24.594-22.667s10.253-23.453 23.547-23.753c13.294-.3 24.305 9.849 24.594 22.667.289 12.819-10.253 23.453-23.547 23.753z" fill="#ef6452"/><path d="M491.31 542.753c.337-8.258-5.641-15.877-14.16-17.546-.056-5.583-2.422-8.003-3.115-8.643-4.615-4.264-14.769-3.245-23.365 4.715 4.286-4.053 4.998-10.694 1.72-15.51-3.189-4.684-9.342-6.452-14.57-4.134-.681-.976-5.773-8.035-14.006-8.328-8.538-.303-17.02 6.792-19.094 17.364-.979.221-5.949 1.44-7.788 5.5-1.915 4.228.045 10.5 5.517 14.618-2.603-1.268-6.639-2.485-11.358-1.26-8.084 2.098-11.028 9.512-11.293 10.215a24.947 24.947 0 0 1 3.894 9.429c1.148 6.152-.343 11.127-1.168 13.358 1.031 1.238 4.022 5.154 4.284 11.001.214 4.778-1.508 8.338-2.336 9.822 2.99.014 7.262-.325 12.072-1.964 7.158-2.44 11.922-6.541 14.408-9.036-.696.902-5.718 7.641-3.699 16.648 2.026 9.038 9.49 12.988 10.5 13.5 1.663.891 10.749 5.547 21.626 2.068 8.926-2.855 13.518-9.415 14.798-11.393.351-.07 8.209-1.768 10.74-9.064 1.712-4.933.338-10.573-3.427-14.517 2.708 1.829 6.013 2.458 9.042 1.58 4.986-1.447 8.444-6.745 7.788-12.572 7.42-1.963 12.689-8.485 12.99-15.851zm-58.748 23.706c-8.71 0-15.771-7.124-15.771-15.912s7.061-15.912 15.771-15.912 15.771 7.124 15.771 15.912-7.061 15.912-15.771 15.912zM116.082 551.558c-.655 5.827 2.803 11.125 7.788 12.572 3.028.879 6.334.25 9.042-1.58-3.765 3.944-5.138 9.584-3.427 14.517 2.531 7.295 10.39 8.994 10.74 9.064.663 1.237 5.224 9.415 14.798 11.393 8.374 1.73 17.251-1.971 22.586-9.429.648-.329 7.493-3.955 8.567-11.786.783-5.713-2.011-9.974-2.726-11.001 2.578 2.583 7.336 6.628 14.408 9.036a36.852 36.852 0 0 0 9.913 1.908 22.064 22.064 0 0 1 1.728-9.003 22.064 22.064 0 0 1 5.5-7.75c-1.456-3.642-3.458-10.196-2.5-18.25a36.094 36.094 0 0 1 2.104-8.55c-.32-.811-3.379-8.182-11.293-10.215-5.52-1.418-10.06.62-11.358 1.26 5.472-4.118 7.432-10.389 5.517-14.618-1.839-4.06-6.81-5.279-7.788-5.5-2.074-10.572-10.556-17.667-19.094-17.364-8.233.292-13.325 7.352-14.006 8.328-5.229-2.318-11.382-.551-14.57 4.134-3.278 4.816-2.566 11.457 1.72 15.51-8.596-7.959-18.75-8.978-23.365-4.715-.693.64-3.059 3.061-3.115 8.643-8.519 1.668-14.497 9.288-14.16 17.546.3 7.367 5.569 13.889 12.991 15.85zm29.985-8.054c0-8.788 7.061-15.912 15.771-15.912s15.771 7.124 15.771 15.912-7.061 15.912-15.771 15.912-15.771-7.124-15.771-15.912z" fill="#d63d32"/><path d="M172.838 543.504c0 14.223-22.179 14.223-22 0-.179-14.223 22-14.223 22 0zM443.562 550.548c0 14.223-22.179 14.223-22 0-.18-14.223 22-14.223 22 0zM317.17 592.115c0 22.12-34.217 22.12-34.217 0s34.217-22.12 34.217 0z" fill="#ef6452"/></g></svg>